<svg xmlns="http://www.w3.org/2000/svg" xmlns:xlink="http://www.w3.org/1999/xlink" width="1920" zoomAndPan="magnify" viewBox="0 0 1440 809.999993" height="1080" preserveAspectRatio="xMidYMid meet" version="1.0"><defs><filter x="0%" y="0%" width="100%" height="100%" id="75976ee8e0"><feColorMatrix values="0 0 0 0 1 0 0 0 0 1 0 0 0 0 1 0 0 0 1 0" color-interpolation-filters="sRGB"/></filter><mask id="9dab1511a4"><g filter="url(#75976ee8e0)"><rect x="-144" width="1728" fill="#000000" y="-80.999999" height="971.999992" fill-opacity="0.2"/></g></mask><clipPath id="05729d620c"><path d="M 0 0.121094 L 539 0.121094 L 539 324 L 0 324 Z M 0 0.121094 " clip-rule="nonzero"/></clipPath><clipPath id="9860b67c1d"><rect x="0" width="540" y="0" height="325"/></clipPath><mask id="90d592d5b6"><g filter="url(#75976ee8e0)"><rect x="-144" width="1728" fill="#000000" y="-80.999999" height="971.999992" fill-opacity="0.2"/></g></mask><clipPath id="805f84c7f5"><path d="M 0.253906 0.660156 L 257.679688 0.660156 L 257.679688 197.160156 L 0.253906 197.160156 Z M 0.253906 0.660156 " clip-rule="nonzero"/></clipPath><clipPath id="c7884f2bdb"><rect x="0" width="258" y="0" height="198"/></clipPath><mask id="37a99d9db2"><g filter="url(#75976ee8e0)"><rect x="-144" width="1728" fill="#000000" y="-80.999999" height="971.999992" fill-opacity="0.2"/></g></mask><clipPath id="01f68512a3"><path d="M 0.800781 0.6875 L 842 0.6875 L 842 401.1875 L 0.800781 401.1875 Z M 0.800781 0.6875 " clip-rule="nonzero"/></clipPath><clipPath id="e2cb9c9c56"><rect x="0" width="842" y="0" height="402"/></clipPath></defs><g mask="url(#9dab1511a4)"><g transform="matrix(1, 0, 0, 1, 0, 81)"><g clip-path="url(#9860b67c1d)"><g clip-path="url(#05729d620c)"><path fill="#90aead" d="M 267.515625 323.703125 C 263.898438 323.707031 260.289062 323.523438 256.691406 323.152344 C 253.09375 322.777344 249.523438 322.21875 245.984375 321.472656 C 242.445312 320.726562 238.953125 319.800781 235.507812 318.6875 C 232.066406 317.578125 228.691406 316.289062 225.382812 314.824219 C 222.074219 313.359375 218.851562 311.726562 215.714844 309.921875 C 212.578125 308.121094 209.542969 306.160156 206.613281 304.042969 C 203.679688 301.921875 200.867188 299.65625 198.171875 297.242188 C 195.476562 294.828125 192.914062 292.277344 190.488281 289.597656 C 187.367188 292.441406 184.011719 294.972656 180.421875 297.195312 C 176.832031 299.414062 173.066406 301.28125 169.125 302.800781 C 165.1875 304.316406 161.140625 305.457031 156.988281 306.222656 C 152.835938 306.984375 148.652344 307.359375 144.429688 307.34375 C 142.097656 307.34375 139.769531 307.222656 137.449219 306.984375 C 135.128906 306.746094 132.828125 306.390625 130.542969 305.917969 C 128.261719 305.445312 126.007812 304.859375 123.78125 304.15625 C 121.558594 303.457031 119.375 302.644531 117.234375 301.71875 C 115.09375 300.792969 113.003906 299.765625 110.96875 298.628906 C 108.929688 297.492188 106.957031 296.253906 105.046875 294.917969 C 103.136719 293.578125 101.300781 292.148438 99.535156 290.621094 C 97.769531 289.097656 96.085938 287.488281 94.484375 285.792969 C 92.027344 286 89.601562 286.101562 87.246094 286.101562 C 39.164062 286.101562 0.0390625 246.988281 0.0390625 198.90625 C 0.0390625 196.578125 0.128906 194.253906 0.3125 191.933594 C 0.496094 189.609375 0.773438 187.300781 1.140625 185.003906 C 1.511719 182.703125 1.96875 180.425781 2.523438 178.164062 C 3.074219 175.902344 3.714844 173.667969 4.445312 171.457031 C 5.179688 169.246094 5.996094 167.070312 6.902344 164.925781 C 7.808594 162.78125 8.796875 160.675781 9.871094 158.609375 C 10.949219 156.546875 12.101562 154.527344 13.339844 152.554688 C 14.574219 150.582031 15.890625 148.664062 17.28125 146.796875 C 18.671875 144.929688 20.132812 143.121094 21.667969 141.371094 C 23.203125 139.621094 24.808594 137.933594 26.476562 136.3125 C 28.148438 134.691406 29.882812 133.140625 31.675781 131.660156 C 33.472656 130.175781 35.324219 128.769531 37.230469 127.433594 C 39.136719 126.101562 41.097656 124.847656 43.105469 123.671875 C 45.113281 122.492188 47.167969 121.398438 49.261719 120.386719 C 51.359375 119.375 53.492188 118.449219 55.664062 117.609375 C 57.832031 116.765625 60.035156 116.015625 62.265625 115.347656 C 62.367188 113.65625 62.523438 111.96875 62.730469 110.285156 C 62.9375 108.601562 63.199219 106.925781 63.507812 105.257812 C 63.820312 103.59375 64.179688 101.9375 64.59375 100.289062 C 65.007812 98.644531 65.472656 97.015625 65.984375 95.398438 C 66.5 93.78125 67.0625 92.183594 67.675781 90.601562 C 68.289062 89.019531 68.949219 87.460938 69.660156 85.917969 C 70.367188 84.378906 71.125 82.863281 71.929688 81.367188 C 72.730469 79.875 73.578125 78.40625 74.472656 76.964844 C 75.367188 75.523438 76.304688 74.113281 77.285156 72.726562 C 78.265625 71.34375 79.289062 69.992188 80.355469 68.671875 C 81.417969 67.351562 82.523438 66.066406 83.667969 64.816406 C 84.8125 63.5625 85.996094 62.347656 87.214844 61.167969 C 88.433594 59.988281 89.6875 58.851562 90.976562 57.75 C 92.265625 56.648438 93.589844 55.585938 94.945312 54.566406 C 96.300781 53.546875 97.6875 52.570312 99.101562 51.636719 C 100.519531 50.703125 101.960938 49.8125 103.433594 48.96875 C 104.902344 48.125 106.398438 47.324219 107.917969 46.574219 C 109.4375 45.820312 110.980469 45.117188 112.542969 44.460938 C 114.105469 43.804688 115.691406 43.195312 117.292969 42.636719 C 118.890625 42.078125 120.507812 41.566406 122.140625 41.109375 C 123.773438 40.648438 125.421875 40.242188 127.078125 39.882812 C 128.734375 39.527344 130.402344 39.222656 132.082031 38.964844 C 133.757812 38.710938 135.441406 38.507812 137.128906 38.359375 C 138.820312 38.210938 140.511719 38.109375 142.207031 38.066406 C 143.902344 38.019531 145.597656 38.027344 147.292969 38.085938 C 148.988281 38.144531 150.679688 38.257812 152.367188 38.417969 C 154.054688 38.582031 155.738281 38.800781 157.410156 39.066406 C 159.085938 39.335938 160.75 39.652344 162.40625 40.023438 C 164.0625 40.394531 165.703125 40.816406 167.332031 41.289062 C 168.960938 41.757812 170.574219 42.28125 172.171875 42.851562 C 173.769531 43.425781 175.34375 44.046875 176.902344 44.714844 C 178.460938 45.382812 180 46.101562 181.511719 46.863281 C 200.371094 17.992188 232.914062 0.246094 267.515625 0.246094 C 271.867188 0.25 276.203125 0.527344 280.519531 1.082031 C 284.835938 1.632812 289.097656 2.457031 293.308594 3.550781 C 297.523438 4.648438 301.648438 6.003906 305.6875 7.621094 C 309.726562 9.242188 313.648438 11.109375 317.449219 13.222656 C 321.253906 15.339844 324.90625 17.6875 328.410156 20.265625 C 331.914062 22.847656 335.242188 25.636719 338.390625 28.640625 C 341.542969 31.640625 344.488281 34.832031 347.234375 38.207031 C 349.980469 41.585938 352.5 45.121094 354.796875 48.816406 C 360.8125 45.28125 367.1875 42.597656 373.921875 40.769531 C 380.660156 38.945312 387.515625 38.035156 394.492188 38.050781 C 436.144531 38.050781 470.328125 70.65625 472.828125 111.710938 L 473.007812 111.710938 C 509.332031 111.710938 538.882812 141.257812 538.882812 177.582031 C 538.882812 179.421875 538.804688 181.257812 538.648438 183.089844 C 538.492188 184.921875 538.261719 186.742188 537.953125 188.554688 C 537.648438 190.367188 537.265625 192.164062 536.808594 193.945312 C 536.347656 195.722656 535.816406 197.480469 535.214844 199.21875 C 534.609375 200.953125 533.933594 202.660156 533.183594 204.339844 C 532.4375 206.019531 531.621094 207.664062 530.734375 209.277344 C 529.847656 210.886719 528.898438 212.457031 527.882812 213.988281 C 526.863281 215.519531 525.785156 217.007812 524.644531 218.449219 C 523.503906 219.890625 522.304688 221.28125 521.046875 222.621094 C 519.789062 223.960938 518.476562 225.25 517.113281 226.480469 C 515.746094 227.710938 514.332031 228.882812 512.871094 229.996094 C 511.40625 231.109375 509.898438 232.160156 508.347656 233.144531 C 506.796875 234.132812 505.207031 235.050781 503.582031 235.90625 C 501.953125 236.761719 500.292969 237.542969 498.597656 238.257812 C 496.90625 238.972656 495.183594 239.617188 493.4375 240.1875 C 491.691406 240.757812 489.921875 241.253906 488.132812 241.679688 C 471.351562 284.964844 429.335938 313.863281 382.726562 313.863281 C 373.839844 313.867188 365.074219 312.835938 356.429688 310.769531 C 347.785156 308.707031 339.496094 305.667969 331.566406 301.652344 C 327.023438 305.199219 322.222656 308.34375 317.15625 311.09375 C 312.089844 313.839844 306.832031 316.152344 301.382812 318.027344 C 295.9375 319.90625 290.371094 321.320312 284.6875 322.269531 C 279.003906 323.222656 273.28125 323.699219 267.515625 323.703125 Z M 190.773438 277.761719 L 190.945312 277.761719 C 191.632812 277.789062 192.289062 277.953125 192.90625 278.257812 C 193.523438 278.5625 194.054688 278.984375 194.492188 279.515625 C 195.476562 280.71875 196.488281 281.894531 197.53125 283.042969 C 198.574219 284.195312 199.644531 285.320312 200.742188 286.417969 C 201.839844 287.515625 202.964844 288.585938 204.113281 289.628906 C 205.265625 290.671875 206.441406 291.683594 207.640625 292.667969 C 208.84375 293.652344 210.066406 294.605469 211.3125 295.53125 C 212.5625 296.453125 213.832031 297.347656 215.125 298.210938 C 216.414062 299.070312 217.726562 299.898438 219.058594 300.695312 C 220.394531 301.492188 221.746094 302.257812 223.113281 302.984375 C 224.484375 303.714844 225.871094 304.410156 227.277344 305.074219 C 228.683594 305.734375 230.101562 306.363281 231.539062 306.953125 C 232.972656 307.542969 234.421875 308.101562 235.886719 308.621094 C 237.347656 309.140625 238.824219 309.625 240.3125 310.070312 C 241.796875 310.519531 243.292969 310.929688 244.800781 311.300781 C 246.308594 311.675781 247.824219 312.011719 249.347656 312.308594 C 250.871094 312.609375 252.402344 312.867188 253.9375 313.09375 C 255.476562 313.316406 257.015625 313.5 258.5625 313.648438 C 260.105469 313.792969 261.65625 313.902344 263.207031 313.972656 C 264.757812 314.042969 266.308594 314.078125 267.863281 314.070312 C 269.414062 314.066406 270.964844 314.019531 272.515625 313.9375 C 274.066406 313.855469 275.613281 313.734375 277.160156 313.578125 C 278.703125 313.417969 280.242188 313.222656 281.777344 312.984375 C 283.3125 312.75 284.839844 312.480469 286.363281 312.167969 C 287.882812 311.859375 289.398438 311.511719 290.902344 311.125 C 292.40625 310.742188 293.898438 310.320312 295.382812 309.859375 C 296.867188 309.402344 298.335938 308.90625 299.796875 308.375 C 301.253906 307.84375 302.699219 307.277344 304.132812 306.675781 C 305.5625 306.074219 306.976562 305.4375 308.375 304.765625 C 309.777344 304.09375 311.160156 303.386719 312.523438 302.644531 C 313.886719 301.90625 315.234375 301.132812 316.5625 300.324219 C 317.886719 299.519531 319.191406 298.679688 320.476562 297.808594 C 321.761719 296.9375 323.027344 296.035156 324.265625 295.101562 C 325.507812 294.167969 326.722656 293.203125 327.917969 292.210938 C 328.289062 291.902344 328.695312 291.652344 329.140625 291.46875 C 329.585938 291.28125 330.050781 291.164062 330.53125 291.117188 C 331.011719 291.070312 331.488281 291.09375 331.960938 291.191406 C 332.433594 291.285156 332.882812 291.449219 333.304688 291.679688 C 340.886719 295.800781 348.859375 298.921875 357.222656 301.046875 C 365.585938 303.171875 374.078125 304.234375 382.707031 304.234375 C 426.171875 304.234375 465.269531 276.765625 479.996094 235.882812 C 480.285156 235.085938 480.753906 234.410156 481.402344 233.859375 C 482.046875 233.304688 482.789062 232.949219 483.625 232.789062 C 485.210938 232.484375 486.785156 232.109375 488.34375 231.667969 C 489.898438 231.226562 491.433594 230.71875 492.945312 230.144531 C 494.460938 229.570312 495.945312 228.933594 497.402344 228.230469 C 498.859375 227.527344 500.285156 226.761719 501.675781 225.9375 C 503.066406 225.113281 504.421875 224.230469 505.738281 223.285156 C 507.054688 222.34375 508.324219 221.347656 509.554688 220.296875 C 510.785156 219.242188 511.96875 218.140625 513.101562 216.988281 C 514.234375 215.832031 515.320312 214.632812 516.351562 213.386719 C 517.378906 212.136719 518.355469 210.847656 519.277344 209.515625 C 520.195312 208.1875 521.054688 206.816406 521.859375 205.410156 C 522.660156 204.007812 523.398438 202.570312 524.078125 201.097656 C 524.753906 199.628906 525.367188 198.132812 525.914062 196.613281 C 526.464844 195.089844 526.945312 193.546875 527.363281 191.980469 C 527.777344 190.417969 528.125 188.839844 528.402344 187.246094 C 528.683594 185.652344 528.894531 184.046875 529.035156 182.4375 C 529.175781 180.824219 529.246094 179.210938 529.25 177.589844 C 529.25 146.574219 504.015625 121.347656 473 121.347656 C 471.472656 121.347656 469.902344 121.464844 468.546875 121.578125 C 468.214844 121.605469 467.882812 121.597656 467.550781 121.554688 C 467.222656 121.515625 466.898438 121.441406 466.585938 121.332031 C 466.269531 121.222656 465.96875 121.085938 465.683594 120.914062 C 465.398438 120.746094 465.132812 120.546875 464.890625 120.320312 C 464.644531 120.097656 464.425781 119.847656 464.230469 119.578125 C 464.039062 119.304688 463.875 119.019531 463.742188 118.714844 C 463.609375 118.410156 463.507812 118.09375 463.4375 117.769531 C 463.371094 117.441406 463.335938 117.113281 463.335938 116.78125 C 463.335938 116.742188 463.335938 116.570312 463.335938 116.53125 C 463.335938 78.566406 432.453125 47.683594 394.488281 47.683594 C 391.066406 47.679688 387.660156 47.925781 384.273438 48.429688 C 380.886719 48.9375 377.558594 49.691406 374.285156 50.695312 C 371.011719 51.699219 367.832031 52.941406 364.746094 54.421875 C 361.660156 55.902344 358.699219 57.605469 355.867188 59.53125 C 355.589844 59.71875 355.296875 59.875 354.988281 60 C 354.679688 60.128906 354.359375 60.222656 354.03125 60.28125 C 353.703125 60.34375 353.371094 60.367188 353.035156 60.359375 C 352.703125 60.351562 352.371094 60.308594 352.046875 60.230469 C 351.722656 60.152344 351.40625 60.042969 351.105469 59.898438 C 350.804688 59.757812 350.519531 59.585938 350.253906 59.382812 C 349.984375 59.179688 349.742188 58.953125 349.523438 58.699219 C 349.304688 58.449219 349.113281 58.175781 348.953125 57.882812 C 347.949219 56.074219 346.890625 54.304688 345.769531 52.566406 C 344.648438 50.832031 343.472656 49.132812 342.242188 47.476562 C 341.007812 45.816406 339.722656 44.203125 338.382812 42.628906 C 337.042969 41.054688 335.652344 39.53125 334.210938 38.050781 C 332.769531 36.570312 331.277344 35.136719 329.742188 33.757812 C 328.207031 32.375 326.625 31.046875 325 29.769531 C 323.375 28.496094 321.707031 27.273438 320.003906 26.109375 C 318.296875 24.941406 316.554688 23.835938 314.773438 22.785156 C 312.992188 21.738281 311.179688 20.746094 309.335938 19.820312 C 307.488281 18.890625 305.613281 18.023438 303.710938 17.21875 C 301.808594 16.414062 299.878906 15.675781 297.925781 15 C 295.976562 14.324219 294 13.710938 292.007812 13.167969 C 290.015625 12.621094 288.007812 12.144531 285.980469 11.734375 C 283.957031 11.320312 281.921875 10.980469 279.871094 10.703125 C 277.824219 10.425781 275.769531 10.21875 273.707031 10.082031 C 271.648438 9.941406 269.582031 9.871094 267.515625 9.867188 C 234.75 9.867188 204.027344 27.429688 187.328125 55.699219 C 187.167969 55.96875 186.984375 56.222656 186.777344 56.457031 C 186.566406 56.691406 186.335938 56.902344 186.085938 57.09375 C 185.835938 57.28125 185.566406 57.445312 185.285156 57.582031 C 185 57.71875 184.707031 57.828125 184.402344 57.90625 C 184.101562 57.984375 183.792969 58.035156 183.476562 58.054688 C 183.164062 58.074219 182.851562 58.0625 182.539062 58.019531 C 182.230469 57.980469 181.925781 57.90625 181.628906 57.804688 C 181.328125 57.703125 181.046875 57.574219 180.773438 57.417969 C 175.25 54.226562 169.40625 51.800781 163.242188 50.148438 C 157.082031 48.496094 150.808594 47.671875 144.429688 47.671875 C 105.015625 47.671875 72.40625 79.730469 71.730469 119.136719 C 71.71875 119.664062 71.628906 120.175781 71.449219 120.671875 C 71.273438 121.171875 71.019531 121.625 70.691406 122.039062 C 70.363281 122.453125 69.976562 122.804688 69.535156 123.09375 C 69.09375 123.378906 68.613281 123.589844 68.101562 123.71875 C 66.03125 124.246094 63.984375 124.855469 61.960938 125.550781 C 59.941406 126.246094 57.953125 127.023438 55.996094 127.882812 C 54.039062 128.742188 52.121094 129.679688 50.238281 130.699219 C 48.359375 131.714844 46.527344 132.808594 44.738281 133.980469 C 42.949219 135.152344 41.210938 136.390625 39.523438 137.707031 C 37.839844 139.019531 36.210938 140.402344 34.636719 141.851562 C 33.066406 143.300781 31.558594 144.808594 30.109375 146.382812 C 28.664062 147.957031 27.285156 149.589844 25.972656 151.277344 C 24.660156 152.964844 23.421875 154.703125 22.253906 156.492188 C 21.085938 158.285156 19.996094 160.117188 18.976562 162 C 17.960938 163.878906 17.027344 165.800781 16.167969 167.757812 C 15.3125 169.714844 14.539062 171.707031 13.84375 173.730469 C 13.152344 175.75 12.546875 177.800781 12.023438 179.871094 C 11.5 181.945312 11.0625 184.035156 10.714844 186.144531 C 10.363281 188.253906 10.101562 190.371094 9.929688 192.503906 C 9.753906 194.632812 9.667969 196.765625 9.671875 198.90625 C 9.671875 241.679688 44.46875 276.476562 87.246094 276.476562 C 90.136719 276.46875 93.015625 276.308594 95.890625 275.984375 C 96.667969 275.894531 97.425781 275.988281 98.160156 276.269531 C 98.894531 276.550781 99.519531 276.988281 100.035156 277.578125 C 100.710938 278.347656 101.40625 279.097656 102.117188 279.832031 C 102.832031 280.566406 103.5625 281.28125 104.316406 281.976562 C 105.066406 282.671875 105.832031 283.347656 106.621094 284 C 107.40625 284.65625 108.207031 285.292969 109.027344 285.90625 C 109.84375 286.519531 110.679688 287.113281 111.527344 287.683594 C 112.378906 288.253906 113.242188 288.800781 114.121094 289.324219 C 114.996094 289.851562 115.890625 290.355469 116.792969 290.832031 C 117.699219 291.3125 118.613281 291.765625 119.542969 292.199219 C 120.46875 292.628906 121.40625 293.035156 122.355469 293.417969 C 123.304688 293.800781 124.265625 294.160156 125.230469 294.492188 C 126.199219 294.824219 127.175781 295.132812 128.160156 295.414062 C 129.144531 295.695312 130.132812 295.953125 131.128906 296.183594 C 132.128906 296.414062 133.128906 296.617188 134.136719 296.796875 C 135.144531 296.976562 136.15625 297.128906 137.171875 297.253906 C 138.1875 297.378906 139.207031 297.476562 140.226562 297.550781 C 141.246094 297.625 142.269531 297.671875 143.292969 297.691406 C 144.316406 297.710938 145.335938 297.703125 146.359375 297.667969 C 147.382812 297.636719 148.40625 297.574219 149.425781 297.488281 C 150.445312 297.402344 151.460938 297.289062 152.472656 297.148438 C 153.488281 297.007812 154.496094 296.84375 155.503906 296.652344 C 156.507812 296.460938 157.507812 296.242188 158.5 295.996094 C 159.496094 295.753906 160.480469 295.484375 161.460938 295.1875 C 162.441406 294.890625 163.410156 294.570312 164.375 294.226562 C 165.335938 293.878906 166.292969 293.507812 167.234375 293.113281 C 168.179688 292.71875 169.113281 292.296875 170.035156 291.855469 C 170.957031 291.410156 171.863281 290.941406 172.761719 290.449219 C 173.660156 289.960938 174.542969 289.445312 175.414062 288.90625 C 176.285156 288.371094 177.140625 287.8125 177.984375 287.230469 C 178.824219 286.648438 179.652344 286.042969 180.460938 285.417969 C 181.273438 284.792969 182.066406 284.148438 182.84375 283.480469 C 183.621094 282.816406 184.378906 282.128906 185.121094 281.425781 C 185.859375 280.71875 186.582031 279.992188 187.285156 279.25 C 187.742188 278.773438 188.273438 278.40625 188.878906 278.148438 C 189.488281 277.890625 190.121094 277.761719 190.78125 277.761719 Z M 190.773438 277.761719 " fill-opacity="1" fill-rule="nonzero"/></g></g></g></g><g mask="url(#90d592d5b6)"><g transform="matrix(1, 0, 0, 1, 362, 581)"><g clip-path="url(#c7884f2bdb)"><g clip-path="url(#805f84c7f5)"><path fill="#90aead" d="M 172.957031 197.164062 C 170.226562 197.167969 167.503906 196.984375 164.796875 196.613281 C 162.089844 196.238281 159.421875 195.679688 156.792969 194.933594 C 154.164062 194.1875 151.601562 193.261719 149.101562 192.15625 C 146.605469 191.050781 144.195312 189.777344 141.871094 188.335938 C 139.550781 186.890625 137.34375 185.296875 135.246094 183.542969 C 133.144531 181.792969 131.179688 179.90625 129.347656 177.878906 C 127.511719 175.851562 125.828125 173.710938 124.296875 171.449219 C 122.761719 169.1875 121.390625 166.828125 120.1875 164.375 C 112.238281 170.292969 102.296875 173.507812 91.761719 173.507812 C 75.757812 173.507812 61.371094 166.105469 53.503906 154.007812 C 48.859375 155.910156 44.027344 156.859375 39.011719 156.855469 C 17.667969 156.855469 0.308594 139.492188 0.308594 118.15625 C 0.308594 96.820312 17.667969 79.457031 39.015625 79.457031 C 41.347656 79.457031 43.660156 79.671875 45.953125 80.097656 C 45.019531 76.382812 44.550781 72.613281 44.550781 68.785156 C 44.550781 42.75 65.726562 21.566406 91.769531 21.566406 C 94.578125 21.558594 97.367188 21.800781 100.136719 22.296875 C 102.902344 22.789062 105.601562 23.527344 108.238281 24.507812 C 110.871094 25.488281 113.394531 26.699219 115.8125 28.132812 C 118.226562 29.570312 120.496094 31.210938 122.617188 33.054688 C 124.125 30.589844 125.789062 28.234375 127.601562 25.980469 C 129.414062 23.730469 131.363281 21.601562 133.445312 19.601562 C 135.53125 17.597656 137.734375 15.734375 140.058594 14.015625 C 142.378906 12.292969 144.804688 10.726562 147.328125 9.316406 C 149.847656 7.90625 152.453125 6.660156 155.132812 5.582031 C 157.816406 4.503906 160.554688 3.597656 163.351562 2.871094 C 166.152344 2.140625 168.984375 1.59375 171.851562 1.230469 C 174.71875 0.863281 177.597656 0.679688 180.488281 0.683594 C 217.933594 0.683594 248.394531 31.144531 248.394531 68.589844 C 248.414062 77.582031 246.695312 86.226562 243.25 94.53125 C 244.585938 95.390625 245.851562 96.34375 247.042969 97.394531 C 248.234375 98.445312 249.339844 99.578125 250.355469 100.796875 C 251.375 102.019531 252.292969 103.308594 253.113281 104.667969 C 253.933594 106.03125 254.644531 107.445312 255.246094 108.914062 C 255.847656 110.386719 256.335938 111.890625 256.707031 113.4375 C 257.078125 114.980469 257.328125 116.542969 257.460938 118.128906 C 257.59375 119.710938 257.601562 121.292969 257.492188 122.878906 C 257.378906 124.464844 257.148438 126.03125 256.796875 127.578125 C 256.445312 129.128906 255.976562 130.640625 255.394531 132.117188 C 254.808594 133.597656 254.117188 135.019531 253.316406 136.390625 C 252.511719 137.761719 251.609375 139.066406 250.609375 140.296875 C 249.609375 141.53125 248.519531 142.679688 247.339844 143.746094 C 246.160156 144.808594 244.910156 145.78125 243.582031 146.652344 C 242.257812 147.527344 240.871094 148.292969 239.425781 148.957031 C 237.980469 149.617188 236.496094 150.164062 234.96875 150.597656 C 233.4375 151.03125 231.886719 151.34375 230.308594 151.539062 C 224.207031 178.113281 200.460938 197.164062 172.957031 197.164062 Z M 121.363281 156.265625 C 121.59375 156.265625 121.824219 156.292969 122.054688 156.34375 C 122.546875 156.457031 122.992188 156.675781 123.378906 157.003906 C 123.765625 157.332031 124.054688 157.734375 124.246094 158.203125 C 125.226562 160.613281 126.375 162.9375 127.699219 165.175781 C 129.019531 167.414062 130.503906 169.539062 132.140625 171.558594 C 133.78125 173.574219 135.5625 175.460938 137.480469 177.214844 C 139.402344 178.964844 141.441406 180.566406 143.597656 182.019531 C 145.757812 183.46875 148.011719 184.75 150.359375 185.863281 C 152.707031 186.980469 155.125 187.914062 157.613281 188.667969 C 160.101562 189.421875 162.632812 189.988281 165.203125 190.367188 C 167.777344 190.746094 170.363281 190.933594 172.960938 190.925781 C 198.265625 190.925781 220.015625 172.894531 224.664062 148.050781 C 224.730469 147.703125 224.851562 147.378906 225.023438 147.074219 C 225.199219 146.769531 225.417969 146.5 225.683594 146.269531 C 225.949219 146.039062 226.246094 145.859375 226.574219 145.730469 C 226.898438 145.597656 227.238281 145.527344 227.589844 145.507812 C 228.949219 145.449219 230.292969 145.277344 231.625 144.996094 C 232.953125 144.714844 234.253906 144.328125 235.519531 143.832031 C 236.789062 143.339844 238.003906 142.742188 239.175781 142.050781 C 240.34375 141.355469 241.449219 140.570312 242.488281 139.691406 C 243.53125 138.816406 244.492188 137.859375 245.375 136.828125 C 246.257812 135.792969 247.050781 134.691406 247.753906 133.527344 C 248.457031 132.363281 249.058594 131.148438 249.5625 129.886719 C 250.066406 128.621094 250.464844 127.328125 250.753906 125.996094 C 251.042969 124.667969 251.222656 123.324219 251.292969 121.96875 C 251.363281 120.609375 251.320312 119.253906 251.167969 117.902344 C 251.015625 116.550781 250.753906 115.21875 250.382812 113.914062 C 250.011719 112.605469 249.535156 111.335938 248.953125 110.105469 C 248.375 108.875 247.699219 107.699219 246.925781 106.578125 C 246.152344 105.460938 245.292969 104.414062 244.347656 103.433594 C 243.402344 102.457031 242.382812 101.5625 241.292969 100.75 C 240.199219 99.941406 239.046875 99.222656 237.839844 98.601562 C 237.480469 98.417969 237.171875 98.171875 236.910156 97.871094 C 236.644531 97.566406 236.449219 97.222656 236.320312 96.84375 C 236.191406 96.460938 236.136719 96.070312 236.15625 95.667969 C 236.175781 95.265625 236.273438 94.882812 236.441406 94.519531 C 238.332031 90.457031 239.757812 86.242188 240.722656 81.867188 C 241.6875 77.492188 242.164062 73.066406 242.15625 68.585938 C 242.15625 34.578125 214.492188 6.917969 180.484375 6.917969 C 177.707031 6.914062 174.941406 7.101562 172.1875 7.472656 C 169.433594 7.847656 166.714844 8.402344 164.035156 9.144531 C 161.359375 9.882812 158.742188 10.800781 156.1875 11.894531 C 153.632812 12.988281 151.160156 14.25 148.777344 15.679688 C 146.394531 17.109375 144.117188 18.691406 141.945312 20.425781 C 139.777344 22.164062 137.734375 24.039062 135.816406 26.050781 C 133.902344 28.0625 132.128906 30.195312 130.5 32.449219 C 128.875 34.703125 127.40625 37.054688 126.09375 39.503906 C 125.980469 39.71875 125.839844 39.921875 125.675781 40.101562 C 125.515625 40.285156 125.332031 40.449219 125.132812 40.589844 C 124.929688 40.730469 124.71875 40.84375 124.488281 40.933594 C 124.261719 41.023438 124.027344 41.085938 123.78125 41.121094 C 123.539062 41.152344 123.296875 41.160156 123.054688 41.136719 C 122.808594 41.113281 122.570312 41.0625 122.339844 40.984375 C 122.109375 40.902344 121.886719 40.796875 121.679688 40.667969 C 121.472656 40.535156 121.285156 40.382812 121.113281 40.207031 C 119.210938 38.238281 117.132812 36.480469 114.875 34.933594 C 112.617188 33.382812 110.226562 32.078125 107.707031 31.011719 C 105.183594 29.945312 102.582031 29.144531 99.898438 28.601562 C 97.214844 28.0625 94.503906 27.796875 91.765625 27.804688 C 69.175781 27.800781 50.78125 46.183594 50.78125 68.78125 C 50.789062 73.835938 51.707031 78.71875 53.527344 83.433594 C 53.746094 84 53.796875 84.582031 53.675781 85.175781 C 53.554688 85.769531 53.28125 86.285156 52.859375 86.71875 C 52.441406 87.15625 51.933594 87.445312 51.34375 87.585938 C 50.753906 87.726562 50.171875 87.695312 49.601562 87.496094 C 46.171875 86.300781 42.644531 85.699219 39.011719 85.691406 C 21.109375 85.691406 6.546875 100.257812 6.546875 118.15625 C 6.546875 136.058594 21.109375 150.617188 39.011719 150.617188 C 44.066406 150.621094 48.851562 149.492188 53.371094 147.238281 C 53.730469 147.058594 54.109375 146.953125 54.511719 146.921875 C 54.910156 146.890625 55.300781 146.933594 55.6875 147.054688 C 56.070312 147.171875 56.417969 147.359375 56.726562 147.613281 C 57.039062 147.867188 57.292969 148.167969 57.484375 148.519531 C 63.738281 159.910156 77.191406 167.269531 91.765625 167.269531 C 102.246094 167.269531 112.011719 163.644531 119.265625 157.066406 C 119.863281 156.53125 120.558594 156.261719 121.363281 156.265625 Z M 121.363281 156.265625 " fill-opacity="1" fill-rule="nonzero"/></g></g></g></g><g mask="url(#37a99d9db2)"><g transform="matrix(1, 0, 0, 1, 598, 204)"><g clip-path="url(#e2cb9c9c56)"><g clip-path="url(#01f68512a3)"><path fill="#90aead" d="M 440.910156 401.226562 C 412.414062 401.226562 385.558594 386.695312 369.757812 363.015625 C 367.589844 364.175781 365.355469 365.179688 363.050781 366.035156 C 360.75 366.890625 358.398438 367.585938 356 368.121094 C 353.601562 368.65625 351.179688 369.027344 348.730469 369.234375 C 346.285156 369.441406 343.832031 369.480469 341.378906 369.355469 C 338.925781 369.230469 336.492188 368.9375 334.078125 368.480469 C 331.664062 368.023438 329.292969 367.40625 326.964844 366.628906 C 324.632812 365.851562 322.367188 364.917969 320.164062 363.832031 C 317.960938 362.746094 315.839844 361.515625 313.804688 360.140625 C 311.5 361.429688 309.152344 362.636719 306.765625 363.765625 C 304.378906 364.894531 301.957031 365.9375 299.496094 366.902344 C 297.039062 367.863281 294.550781 368.738281 292.03125 369.53125 C 289.511719 370.320312 286.96875 371.027344 284.402344 371.644531 C 281.835938 372.257812 279.25 372.789062 276.648438 373.226562 C 274.042969 373.667969 271.425781 374.015625 268.800781 374.277344 C 266.171875 374.539062 263.539062 374.707031 260.902344 374.785156 C 258.261719 374.867188 255.621094 374.855469 252.984375 374.753906 C 250.347656 374.652344 247.714844 374.460938 245.089844 374.179688 C 242.464844 373.898438 239.851562 373.527344 237.253906 373.066406 C 234.652344 372.605469 232.070312 372.054688 229.511719 371.417969 C 226.949219 370.777344 224.410156 370.054688 221.898438 369.242188 C 219.386719 368.429688 216.90625 367.53125 214.453125 366.550781 C 212.003906 365.566406 209.589844 364.503906 207.210938 363.355469 C 204.832031 362.207031 202.496094 360.980469 200.203125 359.671875 C 197.910156 358.363281 195.664062 356.980469 193.464844 355.515625 C 192.289062 356.433594 191.085938 357.316406 189.855469 358.160156 C 188.625 359.007812 187.375 359.816406 186.097656 360.589844 C 184.820312 361.363281 183.523438 362.097656 182.203125 362.796875 C 180.886719 363.492188 179.546875 364.152344 178.1875 364.773438 C 176.832031 365.390625 175.457031 365.972656 174.066406 366.511719 C 172.671875 367.050781 171.269531 367.546875 169.847656 368.003906 C 168.425781 368.460938 166.996094 368.878906 165.550781 369.253906 C 164.105469 369.625 162.652344 369.957031 161.1875 370.246094 C 159.722656 370.535156 158.25 370.78125 156.773438 370.984375 C 155.292969 371.1875 153.8125 371.347656 152.324219 371.464844 C 150.835938 371.582031 149.347656 371.65625 147.855469 371.6875 C 146.363281 371.714844 144.871094 371.703125 143.378906 371.644531 C 141.886719 371.589844 140.398438 371.488281 138.914062 371.34375 C 137.429688 371.199219 135.949219 371.011719 134.472656 370.785156 C 133 370.554688 131.535156 370.28125 130.074219 369.964844 C 128.617188 369.648438 127.167969 369.292969 125.730469 368.890625 C 124.292969 368.492188 122.867188 368.050781 121.457031 367.566406 C 120.042969 367.082031 118.648438 366.558594 117.265625 365.996094 C 115.882812 365.429688 114.519531 364.828125 113.175781 364.183594 C 111.828125 363.539062 110.503906 362.855469 109.195312 362.132812 C 107.890625 361.414062 106.605469 360.65625 105.34375 359.859375 C 104.082031 359.0625 102.84375 358.230469 101.628906 357.363281 C 100.414062 356.492188 99.226562 355.589844 98.066406 354.652344 C 96.90625 353.714844 95.773438 352.742188 94.667969 351.742188 C 93.566406 350.738281 92.492188 349.703125 91.445312 348.636719 C 90.402344 347.570312 89.390625 346.472656 88.410156 345.347656 C 87.429688 344.222656 86.484375 343.070312 85.570312 341.890625 C 84.65625 340.707031 83.78125 339.503906 82.9375 338.269531 C 82.09375 337.039062 81.289062 335.785156 80.519531 334.503906 C 79.75 333.226562 79.019531 331.925781 78.324219 330.605469 C 77.632812 329.285156 76.976562 327.945312 76.359375 326.585938 C 75.746094 325.226562 75.171875 323.847656 74.636719 322.457031 C 73.042969 322.851562 71.433594 323.183594 69.8125 323.445312 C 68.195312 323.707031 66.566406 323.90625 64.929688 324.03125 C 63.292969 324.160156 61.652344 324.222656 60.011719 324.214844 C 58.367188 324.207031 56.730469 324.128906 55.09375 323.988281 C 53.457031 323.84375 51.832031 323.632812 50.214844 323.355469 C 48.59375 323.074219 46.992188 322.730469 45.402344 322.320312 C 43.8125 321.90625 42.242188 321.429688 40.691406 320.890625 C 39.144531 320.347656 37.617188 319.742188 36.117188 319.074219 C 34.617188 318.40625 33.148438 317.675781 31.710938 316.886719 C 30.269531 316.097656 28.867188 315.25 27.496094 314.34375 C 26.128906 313.433594 24.800781 312.472656 23.511719 311.457031 C 22.21875 310.441406 20.976562 309.371094 19.773438 308.253906 C 18.574219 307.132812 17.421875 305.964844 16.316406 304.75 C 15.214844 303.535156 14.164062 302.273438 13.164062 300.972656 C 12.164062 299.667969 11.21875 298.328125 10.332031 296.945312 C 9.445312 295.566406 8.613281 294.148438 7.84375 292.699219 C 7.074219 291.25 6.363281 289.769531 5.714844 288.261719 C 5.066406 286.753906 4.484375 285.222656 3.960938 283.664062 C 3.441406 282.105469 2.984375 280.53125 2.597656 278.9375 C 2.207031 277.339844 1.882812 275.734375 1.625 274.113281 C 1.367188 272.488281 1.179688 270.859375 1.058594 269.222656 C 0.9375 267.585938 0.882812 265.945312 0.894531 264.304688 C 0.910156 262.660156 0.992188 261.023438 1.144531 259.386719 C 1.292969 257.753906 1.511719 256.128906 1.796875 254.511719 C 2.082031 252.894531 2.433594 251.292969 2.851562 249.703125 C 3.265625 248.117188 3.75 246.546875 4.296875 245 C 4.847656 243.453125 5.457031 241.929688 6.132812 240.433594 C 6.804688 238.9375 7.539062 237.46875 8.335938 236.03125 C 9.132812 234.597656 9.984375 233.195312 10.898438 231.832031 C 11.808594 230.464844 12.777344 229.140625 13.796875 227.855469 C 14.820312 226.570312 15.894531 225.328125 17.019531 224.132812 C 18.144531 222.9375 19.316406 221.789062 20.535156 220.691406 C 18.957031 213.976562 18.15625 207.171875 18.132812 200.277344 C 18.132812 149.957031 59.066406 109.015625 109.390625 109.015625 C 120.027344 109.007812 130.351562 110.8125 140.351562 114.433594 C 141.40625 112.269531 142.511719 110.132812 143.679688 108.027344 C 144.84375 105.925781 146.0625 103.851562 147.335938 101.8125 C 148.613281 99.769531 149.941406 97.765625 151.320312 95.796875 C 152.703125 93.824219 154.136719 91.894531 155.621094 90 C 157.101562 88.105469 158.636719 86.253906 160.21875 84.441406 C 161.800781 82.628906 163.429688 80.859375 165.105469 79.132812 C 166.78125 77.40625 168.503906 75.726562 170.269531 74.089844 C 172.035156 72.457031 173.84375 70.871094 175.691406 69.332031 C 177.542969 67.792969 179.429688 66.304688 181.359375 64.867188 C 183.289062 63.425781 185.253906 62.039062 187.253906 60.707031 C 189.257812 59.371094 191.292969 58.09375 193.363281 56.867188 C 195.433594 55.640625 197.535156 54.46875 199.667969 53.355469 C 201.800781 52.242188 203.960938 51.183594 206.148438 50.183594 C 208.335938 49.183594 210.550781 48.242188 212.789062 47.359375 C 215.027344 46.480469 217.285156 45.65625 219.570312 44.894531 C 221.851562 44.132812 224.152344 43.429688 226.46875 42.789062 C 228.789062 42.148438 231.125 41.570312 233.472656 41.054688 C 235.824219 40.539062 238.1875 40.085938 240.558594 39.695312 C 242.933594 39.304688 245.316406 38.976562 247.707031 38.710938 C 250.101562 38.445312 252.496094 38.246094 254.898438 38.109375 C 257.300781 37.972656 259.703125 37.898438 262.109375 37.886719 C 264.515625 37.878906 266.921875 37.933594 269.324219 38.050781 C 271.726562 38.167969 274.125 38.351562 276.519531 38.597656 C 278.910156 38.839844 281.296875 39.148438 283.675781 39.523438 C 286.050781 39.894531 288.417969 40.328125 290.769531 40.828125 C 293.125 41.324219 295.464844 41.882812 297.789062 42.503906 C 300.113281 43.125 302.417969 43.808594 304.707031 44.554688 C 306.996094 45.296875 309.261719 46.101562 311.507812 46.964844 C 313.75 47.832031 315.972656 48.753906 318.167969 49.738281 C 320.367188 50.71875 322.535156 51.757812 324.675781 52.855469 C 326.816406 53.953125 328.925781 55.105469 331.007812 56.316406 C 333.085938 57.527344 335.132812 58.789062 337.144531 60.109375 C 338.464844 57.859375 339.855469 55.652344 341.316406 53.496094 C 342.78125 51.335938 344.3125 49.226562 345.910156 47.167969 C 347.511719 45.109375 349.175781 43.105469 350.90625 41.152344 C 352.636719 39.203125 354.425781 37.308594 356.28125 35.476562 C 358.132812 33.640625 360.042969 31.871094 362.011719 30.160156 C 363.980469 28.449219 366.003906 26.804688 368.078125 25.226562 C 370.15625 23.648438 372.28125 22.140625 374.453125 20.703125 C 376.628906 19.261719 378.847656 17.894531 381.109375 16.597656 C 383.371094 15.304688 385.675781 14.082031 388.015625 12.9375 C 390.359375 11.792969 392.738281 10.722656 395.148438 9.734375 C 397.558594 8.742188 400.003906 7.832031 402.472656 7 C 404.945312 6.167969 407.441406 5.414062 409.960938 4.746094 C 412.480469 4.078125 415.019531 3.488281 417.578125 2.984375 C 420.136719 2.480469 422.707031 2.0625 425.292969 1.726562 C 427.878906 1.386719 430.472656 1.136719 433.074219 0.96875 C 435.675781 0.800781 438.28125 0.714844 440.890625 0.71875 C 498.300781 0.71875 547.804688 41.839844 558.859375 97.484375 C 560.953125 96.175781 563.082031 94.925781 565.25 93.742188 C 567.414062 92.554688 569.613281 91.433594 571.839844 90.371094 C 574.070312 89.3125 576.328125 88.320312 578.617188 87.390625 C 580.902344 86.457031 583.214844 85.59375 585.550781 84.796875 C 587.886719 84 590.246094 83.273438 592.625 82.609375 C 595.003906 81.949219 597.398438 81.355469 599.8125 80.832031 C 602.222656 80.308594 604.648438 79.855469 607.085938 79.46875 C 609.527344 79.085938 611.972656 78.773438 614.429688 78.527344 C 616.886719 78.285156 619.347656 78.113281 621.816406 78.007812 C 624.28125 77.90625 626.75 77.875 629.21875 77.914062 C 631.6875 77.953125 634.152344 78.066406 636.613281 78.246094 C 639.074219 78.425781 641.53125 78.679688 643.976562 79 C 646.425781 79.324219 648.863281 79.714844 651.289062 80.179688 C 653.710938 80.640625 656.121094 81.171875 658.515625 81.773438 C 660.910156 82.375 663.285156 83.042969 665.644531 83.78125 C 668 84.519531 670.332031 85.320312 672.640625 86.195312 C 674.953125 87.066406 677.234375 88.003906 679.492188 89.003906 C 681.746094 90.007812 683.972656 91.074219 686.167969 92.203125 C 688.363281 93.335938 690.523438 94.527344 692.648438 95.78125 C 694.773438 97.035156 696.863281 98.351562 698.914062 99.726562 C 700.964844 101.101562 702.972656 102.535156 704.941406 104.023438 C 706.910156 105.511719 708.832031 107.058594 710.714844 108.660156 C 712.59375 110.261719 714.425781 111.914062 716.210938 113.621094 C 717.992188 115.324219 719.726562 117.082031 721.410156 118.886719 C 723.09375 120.691406 724.726562 122.546875 726.300781 124.445312 C 727.878906 126.34375 729.398438 128.289062 730.867188 130.273438 C 732.332031 132.261719 733.738281 134.289062 735.085938 136.355469 C 736.4375 138.421875 737.722656 140.527344 738.953125 142.671875 C 740.179688 144.8125 741.347656 146.988281 742.449219 149.195312 C 743.550781 151.40625 744.589844 153.644531 745.566406 155.910156 C 746.539062 158.179688 747.449219 160.472656 748.289062 162.792969 C 749.132812 165.117188 749.90625 167.457031 750.613281 169.824219 C 753.277344 169.53125 755.945312 169.378906 758.621094 169.371094 C 804.46875 169.371094 841.765625 206.671875 841.765625 252.523438 C 841.765625 290.445312 815.472656 323.945312 778.894531 333.128906 C 764.574219 369.800781 728.972656 394.261719 689.53125 394.261719 C 685.832031 394.265625 682.140625 394.054688 678.464844 393.628906 C 674.789062 393.207031 671.152344 392.570312 667.550781 391.722656 C 663.945312 390.878906 660.40625 389.824219 656.925781 388.570312 C 653.445312 387.3125 650.046875 385.859375 646.738281 384.207031 C 643.425781 382.558594 640.21875 380.722656 637.121094 378.699219 C 634.019531 376.675781 631.050781 374.484375 628.207031 372.117188 C 625.359375 369.75 622.664062 367.226562 620.109375 364.546875 C 617.558594 361.867188 615.167969 359.050781 612.945312 356.09375 C 612.164062 356.980469 611.363281 357.847656 610.542969 358.699219 C 609.722656 359.546875 608.882812 360.375 608.023438 361.183594 C 607.160156 361.992188 606.28125 362.78125 605.382812 363.546875 C 604.484375 364.3125 603.570312 365.058594 602.636719 365.78125 C 601.703125 366.503906 600.753906 367.207031 599.785156 367.882812 C 598.820312 368.5625 597.835938 369.214844 596.839844 369.847656 C 595.839844 370.476562 594.828125 371.085938 593.800781 371.667969 C 592.773438 372.25 591.734375 372.808594 590.679688 373.339844 C 589.628906 373.875 588.5625 374.382812 587.484375 374.863281 C 586.40625 375.347656 585.316406 375.800781 584.21875 376.234375 C 583.117188 376.664062 582.007812 377.066406 580.890625 377.445312 C 579.769531 377.820312 578.644531 378.171875 577.507812 378.496094 C 576.375 378.820312 575.230469 379.117188 574.082031 379.386719 C 572.929688 379.65625 571.777344 379.898438 570.613281 380.109375 C 569.453125 380.324219 568.289062 380.511719 567.117188 380.667969 C 565.949219 380.828125 564.773438 380.957031 563.597656 381.0625 C 562.421875 381.164062 561.242188 381.238281 560.0625 381.285156 C 558.882812 381.332031 557.703125 381.351562 556.523438 381.339844 C 555.34375 381.332031 554.164062 381.292969 552.984375 381.226562 C 551.804688 381.160156 550.628906 381.066406 549.453125 380.945312 C 548.277344 380.820312 547.109375 380.671875 545.941406 380.492188 C 544.773438 380.316406 543.613281 380.109375 542.453125 379.875 C 541.296875 379.640625 540.144531 379.382812 539 379.09375 C 537.855469 378.804688 536.71875 378.488281 535.585938 378.148438 C 534.457031 377.804688 533.335938 377.433594 532.222656 377.039062 C 531.113281 376.644531 530.007812 376.21875 528.917969 375.773438 C 527.824219 375.324219 526.742188 374.847656 525.675781 374.347656 C 524.605469 373.847656 523.546875 373.324219 522.503906 372.773438 C 521.457031 372.222656 520.425781 371.648438 519.410156 371.046875 C 518.394531 370.445312 517.390625 369.824219 516.402344 369.175781 C 515.417969 368.527344 514.445312 367.859375 513.488281 367.164062 C 512.535156 366.46875 511.597656 365.753906 510.675781 365.015625 C 508.71875 367.808594 506.601562 370.472656 504.328125 373.011719 C 502.050781 375.546875 499.628906 377.9375 497.066406 380.183594 C 494.5 382.429688 491.808594 384.515625 488.996094 386.4375 C 486.179688 388.359375 483.257812 390.105469 480.234375 391.675781 C 477.207031 393.246094 474.097656 394.628906 470.90625 395.824219 C 467.714844 397.019531 464.460938 398.023438 461.148438 398.828125 C 457.835938 399.628906 454.488281 400.234375 451.101562 400.636719 C 447.71875 401.035156 444.320312 401.234375 440.910156 401.226562 Z M 371.25 352.335938 C 371.605469 352.335938 371.957031 352.375 372.300781 352.457031 C 372.902344 352.597656 373.449219 352.851562 373.949219 353.214844 C 374.445312 353.578125 374.851562 354.027344 375.167969 354.554688 C 376.855469 357.398438 378.71875 360.117188 380.757812 362.71875 C 382.796875 365.320312 384.992188 367.777344 387.351562 370.09375 C 389.707031 372.410156 392.203125 374.566406 394.835938 376.5625 C 397.472656 378.554688 400.222656 380.375 403.089844 382.011719 C 405.960938 383.652344 408.921875 385.101562 411.976562 386.359375 C 415.035156 387.617188 418.15625 388.671875 421.351562 389.527344 C 424.542969 390.382812 427.777344 391.027344 431.050781 391.464844 C 434.328125 391.902344 437.617188 392.128906 440.921875 392.140625 C 467.527344 392.140625 491.824219 378.570312 505.90625 355.828125 C 506.082031 355.542969 506.285156 355.28125 506.519531 355.042969 C 506.753906 354.804688 507.011719 354.59375 507.292969 354.414062 C 507.570312 354.230469 507.867188 354.082031 508.183594 353.964844 C 508.496094 353.847656 508.816406 353.769531 509.148438 353.722656 C 509.480469 353.675781 509.8125 353.667969 510.144531 353.699219 C 510.476562 353.726562 510.804688 353.789062 511.121094 353.890625 C 511.441406 353.992188 511.746094 354.125 512.035156 354.292969 C 512.324219 354.457031 512.589844 354.65625 512.835938 354.882812 C 513.675781 355.65625 514.53125 356.410156 515.410156 357.144531 C 516.285156 357.875 517.183594 358.582031 518.097656 359.265625 C 519.011719 359.949219 519.941406 360.609375 520.890625 361.246094 C 521.839844 361.878906 522.804688 362.488281 523.785156 363.074219 C 524.765625 363.660156 525.761719 364.214844 526.773438 364.75 C 527.78125 365.28125 528.804688 365.785156 529.84375 366.265625 C 530.878906 366.742188 531.929688 367.195312 532.988281 367.617188 C 534.050781 368.039062 535.121094 368.4375 536.199219 368.804688 C 537.28125 369.171875 538.371094 369.507812 539.472656 369.820312 C 540.570312 370.128906 541.675781 370.410156 542.789062 370.660156 C 543.902344 370.914062 545.023438 371.136719 546.148438 371.328125 C 547.273438 371.523438 548.402344 371.683594 549.539062 371.820312 C 550.671875 371.953125 551.808594 372.054688 552.949219 372.128906 C 554.085938 372.203125 555.226562 372.25 556.371094 372.261719 C 557.511719 372.277344 558.652344 372.261719 559.792969 372.214844 C 560.933594 372.167969 562.074219 372.09375 563.210938 371.988281 C 564.347656 371.882812 565.480469 371.746094 566.609375 371.582031 C 567.742188 371.414062 568.867188 371.222656 569.984375 370.996094 C 571.105469 370.773438 572.21875 370.519531 573.324219 370.238281 C 574.429688 369.953125 575.527344 369.640625 576.617188 369.300781 C 577.707031 368.960938 578.789062 368.59375 579.859375 368.195312 C 580.929688 367.796875 581.988281 367.375 583.039062 366.921875 C 584.085938 366.46875 585.121094 365.988281 586.144531 365.480469 C 587.167969 364.972656 588.175781 364.441406 589.171875 363.878906 C 590.167969 363.320312 591.144531 362.734375 592.109375 362.125 C 593.074219 361.511719 594.023438 360.875 594.953125 360.214844 C 595.882812 359.550781 596.796875 358.867188 597.691406 358.15625 C 598.585938 357.449219 599.460938 356.714844 600.320312 355.960938 C 601.175781 355.207031 602.011719 354.429688 602.828125 353.628906 C 603.640625 352.832031 604.4375 352.011719 605.207031 351.171875 C 605.980469 350.328125 606.730469 349.46875 607.457031 348.589844 C 608.1875 347.707031 608.890625 346.808594 609.570312 345.890625 C 609.789062 345.601562 610.035156 345.339844 610.316406 345.105469 C 610.597656 344.875 610.902344 344.679688 611.230469 344.519531 C 611.558594 344.363281 611.898438 344.246094 612.257812 344.167969 C 612.613281 344.09375 612.972656 344.058594 613.335938 344.070312 C 613.699219 344.082031 614.058594 344.136719 614.410156 344.230469 C 614.761719 344.328125 615.09375 344.464844 615.414062 344.644531 C 615.730469 344.820312 616.023438 345.03125 616.289062 345.28125 C 616.554688 345.527344 616.789062 345.804688 616.992188 346.109375 C 618.957031 349.101562 621.105469 351.960938 623.429688 354.691406 C 625.75 357.417969 628.234375 359.992188 630.875 362.414062 C 633.515625 364.832031 636.296875 367.082031 639.21875 369.15625 C 642.140625 371.234375 645.175781 373.121094 648.332031 374.820312 C 651.484375 376.523438 654.730469 378.019531 658.070312 379.316406 C 661.410156 380.617188 664.816406 381.703125 668.292969 382.578125 C 671.765625 383.453125 675.28125 384.113281 678.839844 384.550781 C 682.394531 384.992188 685.964844 385.210938 689.546875 385.210938 C 726.003906 385.210938 758.816406 362.117188 771.242188 327.746094 C 771.507812 327.011719 771.933594 326.390625 772.519531 325.875 C 773.105469 325.363281 773.777344 325.023438 774.539062 324.855469 C 808.242188 317.476562 832.707031 287.070312 832.707031 252.542969 C 832.707031 211.699219 799.476562 178.472656 758.640625 178.472656 C 755.0625 178.496094 751.507812 178.78125 747.976562 179.328125 C 747.425781 179.40625 746.878906 179.386719 746.335938 179.265625 C 745.792969 179.144531 745.289062 178.929688 744.824219 178.621094 C 744.359375 178.316406 743.964844 177.9375 743.640625 177.484375 C 743.3125 177.03125 743.082031 176.539062 742.9375 176 C 742.320312 173.679688 741.632812 171.378906 740.878906 169.097656 C 740.121094 166.816406 739.300781 164.558594 738.40625 162.328125 C 737.515625 160.097656 736.558594 157.894531 735.535156 155.722656 C 734.511719 153.550781 733.421875 151.410156 732.269531 149.300781 C 731.117188 147.191406 729.902344 145.121094 728.625 143.085938 C 727.347656 141.050781 726.011719 139.058594 724.613281 137.105469 C 723.214844 135.148438 721.761719 133.238281 720.25 131.371094 C 718.738281 129.503906 717.171875 127.6875 715.546875 125.914062 C 713.925781 124.140625 712.253906 122.417969 710.527344 120.746094 C 708.800781 119.074219 707.027344 117.457031 705.207031 115.890625 C 703.382812 114.328125 701.515625 112.816406 699.601562 111.367188 C 697.6875 109.914062 695.730469 108.519531 693.734375 107.183594 C 691.738281 105.847656 689.703125 104.574219 687.628906 103.363281 C 685.554688 102.152344 683.445312 101 681.300781 99.917969 C 679.160156 98.832031 676.984375 97.8125 674.78125 96.855469 C 672.574219 95.902344 670.34375 95.011719 668.085938 94.191406 C 665.828125 93.371094 663.546875 92.621094 661.246094 91.9375 C 658.941406 91.253906 656.621094 90.640625 654.28125 90.097656 C 651.9375 89.554688 649.585938 89.082031 647.214844 88.679688 C 644.847656 88.277344 642.46875 87.945312 640.082031 87.6875 C 637.691406 87.429688 635.296875 87.242188 632.898438 87.128906 C 630.5 87.011719 628.097656 86.972656 625.695312 87 C 623.292969 87.03125 620.894531 87.132812 618.496094 87.308594 C 616.101562 87.480469 613.714844 87.726562 611.332031 88.042969 C 608.949219 88.363281 606.582031 88.75 604.222656 89.210938 C 601.867188 89.671875 599.523438 90.203125 597.199219 90.804688 C 594.871094 91.40625 592.566406 92.078125 590.28125 92.816406 C 587.996094 93.558594 585.734375 94.367188 583.496094 95.242188 C 581.257812 96.117188 579.050781 97.0625 576.871094 98.070312 C 574.691406 99.078125 572.542969 100.152344 570.425781 101.292969 C 568.3125 102.429688 566.230469 103.628906 564.1875 104.894531 C 562.144531 106.15625 560.140625 107.480469 558.179688 108.863281 C 558.019531 108.976562 557.855469 109.078125 557.683594 109.167969 C 557.511719 109.261719 557.335938 109.339844 557.152344 109.40625 C 556.972656 109.476562 556.785156 109.53125 556.597656 109.578125 C 556.410156 109.621094 556.21875 109.652344 556.023438 109.671875 C 555.832031 109.691406 555.636719 109.699219 555.445312 109.695312 C 555.25 109.691406 555.058594 109.671875 554.867188 109.644531 C 554.675781 109.613281 554.484375 109.574219 554.300781 109.519531 C 554.113281 109.464844 553.929688 109.398438 553.753906 109.320312 C 553.574219 109.246094 553.402344 109.15625 553.234375 109.054688 C 553.070312 108.957031 552.910156 108.847656 552.757812 108.726562 C 552.605469 108.605469 552.460938 108.476562 552.324219 108.339844 C 552.1875 108.199219 552.0625 108.054688 551.945312 107.898438 C 551.828125 107.746094 551.722656 107.582031 551.625 107.414062 C 551.527344 107.246094 551.441406 107.074219 551.371094 106.894531 C 551.296875 106.714844 551.234375 106.53125 551.183594 106.34375 C 551.132812 106.15625 551.09375 105.964844 551.066406 105.773438 C 543.5625 51.070312 496.21875 9.8125 440.910156 9.8125 C 438.402344 9.8125 435.898438 9.894531 433.394531 10.0625 C 430.890625 10.230469 428.398438 10.484375 425.910156 10.820312 C 423.425781 11.160156 420.953125 11.578125 418.496094 12.085938 C 416.039062 12.589844 413.601562 13.175781 411.183594 13.847656 C 408.765625 14.515625 406.375 15.265625 404.007812 16.097656 C 401.640625 16.929688 399.304688 17.839844 397 18.828125 C 394.695312 19.820312 392.425781 20.886719 390.195312 22.03125 C 387.960938 23.171875 385.769531 24.390625 383.621094 25.683594 C 381.46875 26.972656 379.367188 28.335938 377.308594 29.769531 C 375.25 31.207031 373.242188 32.707031 371.285156 34.277344 C 369.328125 35.847656 367.429688 37.480469 365.582031 39.179688 C 363.738281 40.878906 361.953125 42.640625 360.226562 44.457031 C 358.5 46.277344 356.835938 48.15625 355.234375 50.085938 C 353.636719 52.019531 352.105469 54.003906 350.640625 56.039062 C 349.171875 58.074219 347.777344 60.160156 346.457031 62.289062 C 345.132812 64.421875 343.878906 66.59375 342.703125 68.808594 C 342.550781 69.09375 342.371094 69.359375 342.164062 69.605469 C 341.957031 69.851562 341.726562 70.074219 341.46875 70.269531 C 341.214844 70.464844 340.941406 70.632812 340.652344 70.773438 C 340.359375 70.910156 340.058594 71.019531 339.746094 71.09375 C 339.433594 71.167969 339.113281 71.207031 338.792969 71.214844 C 338.46875 71.222656 338.152344 71.195312 337.835938 71.132812 C 337.519531 71.070312 337.210938 70.976562 336.914062 70.851562 C 336.617188 70.726562 336.339844 70.570312 336.074219 70.382812 C 334.167969 69.03125 332.226562 67.734375 330.25 66.488281 C 328.273438 65.246094 326.261719 64.054688 324.21875 62.921875 C 322.175781 61.789062 320.101562 60.710938 318 59.695312 C 315.898438 58.675781 313.769531 57.714844 311.613281 56.8125 C 309.457031 55.910156 307.277344 55.070312 305.074219 54.289062 C 302.875 53.507812 300.652344 52.789062 298.410156 52.132812 C 296.167969 51.472656 293.910156 50.878906 291.632812 50.34375 C 289.359375 49.8125 287.070312 49.339844 284.769531 48.933594 C 282.46875 48.527344 280.160156 48.183594 277.839844 47.902344 C 275.519531 47.625 273.195312 47.410156 270.863281 47.257812 C 268.53125 47.105469 266.195312 47.019531 263.859375 47 C 261.523438 46.976562 259.1875 47.019531 256.855469 47.125 C 254.519531 47.234375 252.191406 47.402344 249.867188 47.640625 C 247.542969 47.875 245.226562 48.175781 242.917969 48.539062 C 240.609375 48.902344 238.3125 49.328125 236.027344 49.820312 C 233.742188 50.308594 231.476562 50.863281 229.222656 51.476562 C 226.96875 52.09375 224.730469 52.773438 222.515625 53.511719 C 220.296875 54.25 218.105469 55.050781 215.933594 55.910156 C 213.757812 56.769531 211.613281 57.691406 209.492188 58.667969 C 207.371094 59.648438 205.277344 60.683594 203.210938 61.78125 C 201.148438 62.875 199.117188 64.023438 197.113281 65.230469 C 195.113281 66.4375 193.148438 67.699219 191.21875 69.015625 C 189.285156 70.332031 187.394531 71.699219 185.539062 73.117188 C 183.683594 74.539062 181.867188 76.007812 180.09375 77.53125 C 178.316406 79.050781 176.585938 80.617188 174.898438 82.234375 C 173.210938 83.851562 171.570312 85.511719 169.972656 87.21875 C 168.378906 88.925781 166.832031 90.671875 165.332031 92.464844 C 163.832031 94.257812 162.382812 96.089844 160.984375 97.960938 C 159.585938 99.835938 158.242188 101.742188 156.949219 103.691406 C 155.65625 105.636719 154.417969 107.617188 153.234375 109.632812 C 152.050781 111.644531 150.925781 113.691406 149.855469 115.769531 C 148.785156 117.847656 147.773438 119.953125 146.820312 122.085938 C 146.699219 122.351562 146.554688 122.605469 146.386719 122.84375 C 146.214844 123.082031 146.027344 123.300781 145.816406 123.503906 C 145.601562 123.707031 145.375 123.886719 145.128906 124.046875 C 144.882812 124.203125 144.621094 124.335938 144.351562 124.445312 C 144.078125 124.550781 143.800781 124.632812 143.511719 124.6875 C 143.222656 124.742188 142.933594 124.765625 142.640625 124.765625 C 142.347656 124.761719 142.058594 124.734375 141.773438 124.675781 C 141.484375 124.617188 141.207031 124.53125 140.9375 124.417969 C 135.9375 122.335938 130.785156 120.765625 125.476562 119.703125 C 120.167969 118.644531 114.804688 118.117188 109.390625 118.121094 C 64.070312 118.121094 27.207031 154.988281 27.207031 200.308594 C 27.238281 207.390625 28.167969 214.351562 29.996094 221.195312 C 30.109375 221.617188 30.15625 222.042969 30.144531 222.476562 C 30.132812 222.914062 30.058594 223.339844 29.925781 223.753906 C 29.789062 224.167969 29.601562 224.550781 29.355469 224.910156 C 29.109375 225.273438 28.816406 225.589844 28.480469 225.863281 C 27.351562 226.785156 26.261719 227.75 25.214844 228.765625 C 24.167969 229.777344 23.167969 230.835938 22.214844 231.9375 C 21.257812 233.039062 20.355469 234.179688 19.5 235.359375 C 18.644531 236.539062 17.839844 237.753906 17.089844 239.003906 C 16.339844 240.25 15.644531 241.53125 15.007812 242.839844 C 14.367188 244.152344 13.789062 245.484375 13.265625 246.847656 C 12.742188 248.207031 12.28125 249.585938 11.875 250.988281 C 11.472656 252.386719 11.132812 253.800781 10.851562 255.234375 C 10.574219 256.664062 10.355469 258.101562 10.203125 259.550781 C 10.046875 261 9.953125 262.453125 9.925781 263.910156 C 9.898438 265.367188 9.933594 266.824219 10.03125 268.277344 C 10.128906 269.730469 10.289062 271.175781 10.515625 272.617188 C 10.738281 274.058594 11.023438 275.484375 11.371094 276.898438 C 11.71875 278.316406 12.128906 279.710938 12.597656 281.089844 C 13.066406 282.472656 13.597656 283.828125 14.183594 285.160156 C 14.769531 286.496094 15.414062 287.800781 16.117188 289.078125 C 16.816406 290.355469 17.570312 291.601562 18.378906 292.8125 C 19.1875 294.023438 20.050781 295.199219 20.960938 296.335938 C 21.871094 297.472656 22.828125 298.570312 23.835938 299.625 C 24.84375 300.679688 25.890625 301.6875 26.984375 302.648438 C 28.078125 303.613281 29.214844 304.523438 30.386719 305.390625 C 31.558594 306.253906 32.769531 307.066406 34.011719 307.824219 C 35.257812 308.582031 36.53125 309.289062 37.835938 309.9375 C 39.140625 310.582031 40.472656 311.175781 41.828125 311.707031 C 43.183594 312.238281 44.5625 312.714844 45.957031 313.125 C 47.355469 313.539062 48.769531 313.890625 50.195312 314.179688 C 51.625 314.472656 53.0625 314.699219 54.511719 314.863281 C 55.957031 315.03125 57.410156 315.132812 58.867188 315.171875 C 60.324219 315.210938 61.78125 315.1875 63.234375 315.097656 C 64.6875 315.011719 66.136719 314.859375 67.578125 314.648438 C 69.019531 314.433594 70.449219 314.160156 71.867188 313.820312 C 73.285156 313.484375 74.683594 313.085938 76.066406 312.625 C 76.351562 312.53125 76.644531 312.46875 76.941406 312.429688 C 77.238281 312.394531 77.535156 312.386719 77.835938 312.410156 C 78.132812 312.433594 78.429688 312.488281 78.714844 312.566406 C 79.003906 312.648438 79.28125 312.757812 79.550781 312.894531 C 79.816406 313.03125 80.066406 313.191406 80.300781 313.375 C 80.539062 313.5625 80.75 313.769531 80.945312 313.996094 C 81.140625 314.226562 81.308594 314.472656 81.453125 314.734375 C 81.601562 314.996094 81.71875 315.269531 81.808594 315.554688 C 82.230469 316.878906 82.695312 318.1875 83.199219 319.480469 C 83.703125 320.773438 84.246094 322.050781 84.828125 323.3125 C 85.410156 324.574219 86.027344 325.816406 86.6875 327.039062 C 87.34375 328.261719 88.039062 329.460938 88.773438 330.640625 C 89.503906 331.820312 90.273438 332.976562 91.078125 334.109375 C 91.878906 335.242188 92.71875 336.347656 93.589844 337.429688 C 94.460938 338.511719 95.363281 339.566406 96.300781 340.589844 C 97.238281 341.617188 98.203125 342.609375 99.199219 343.578125 C 100.199219 344.542969 101.226562 345.476562 102.28125 346.378906 C 103.335938 347.28125 104.417969 348.152344 105.527344 348.988281 C 106.632812 349.824219 107.769531 350.625 108.925781 351.390625 C 110.082031 352.160156 111.265625 352.890625 112.464844 353.582031 C 113.667969 354.277344 114.890625 354.933594 116.136719 355.550781 C 117.378906 356.167969 118.640625 356.75 119.917969 357.289062 C 121.199219 357.832031 122.492188 358.332031 123.800781 358.792969 C 125.113281 359.253906 126.433594 359.675781 127.769531 360.054688 C 129.105469 360.433594 130.453125 360.773438 131.808594 361.070312 C 133.164062 361.367188 134.527344 361.625 135.902344 361.835938 C 137.273438 362.050781 138.648438 362.21875 140.03125 362.347656 C 141.414062 362.476562 142.800781 362.5625 144.1875 362.605469 C 145.578125 362.648438 146.964844 362.648438 148.351562 362.605469 C 149.742188 362.566406 151.125 362.480469 152.507812 362.351562 C 153.890625 362.226562 155.269531 362.054688 156.640625 361.84375 C 158.011719 361.628906 159.378906 361.375 160.734375 361.078125 C 162.089844 360.785156 163.4375 360.445312 164.773438 360.066406 C 166.109375 359.6875 167.433594 359.269531 168.742188 358.808594 C 170.050781 358.347656 171.347656 357.847656 172.625 357.304688 C 173.90625 356.765625 175.167969 356.1875 176.410156 355.570312 C 177.652344 354.953125 178.875 354.296875 180.078125 353.601562 C 181.285156 352.910156 182.464844 352.179688 183.621094 351.414062 C 184.78125 350.648438 185.914062 349.847656 187.023438 349.011719 C 188.132812 348.179688 189.214844 347.308594 190.269531 346.40625 C 190.65625 346.078125 191.082031 345.820312 191.554688 345.636719 C 192.023438 345.449219 192.511719 345.347656 193.015625 345.324219 C 193.523438 345.300781 194.015625 345.359375 194.503906 345.503906 C 194.988281 345.644531 195.4375 345.863281 195.847656 346.15625 C 197.933594 347.632812 200.070312 349.035156 202.253906 350.363281 C 204.441406 351.6875 206.671875 352.933594 208.945312 354.097656 C 211.222656 355.261719 213.539062 356.34375 215.890625 357.34375 C 218.246094 358.339844 220.632812 359.253906 223.050781 360.078125 C 225.46875 360.902344 227.914062 361.640625 230.386719 362.292969 C 232.859375 362.941406 235.351562 363.5 237.867188 363.96875 C 240.378906 364.441406 242.90625 364.820312 245.445312 365.105469 C 247.984375 365.394531 250.53125 365.589844 253.085938 365.695312 C 255.640625 365.800781 258.195312 365.8125 260.75 365.730469 C 263.304688 365.652344 265.855469 365.480469 268.398438 365.214844 C 270.941406 364.953125 273.472656 364.597656 275.988281 364.148438 C 278.503906 363.703125 281.003906 363.167969 283.480469 362.542969 C 285.960938 361.914062 288.414062 361.199219 290.839844 360.398438 C 293.265625 359.59375 295.660156 358.703125 298.023438 357.730469 C 300.386719 356.753906 302.710938 355.695312 305 354.550781 C 307.285156 353.40625 309.527344 352.183594 311.726562 350.878906 C 312.113281 350.648438 312.523438 350.476562 312.964844 350.371094 C 313.402344 350.261719 313.84375 350.21875 314.296875 350.246094 C 314.746094 350.269531 315.183594 350.359375 315.605469 350.515625 C 316.027344 350.671875 316.417969 350.882812 316.777344 351.15625 C 318.621094 352.554688 320.5625 353.808594 322.59375 354.910156 C 324.628906 356.011719 326.738281 356.953125 328.917969 357.730469 C 331.097656 358.511719 333.320312 359.117188 335.59375 359.554688 C 337.867188 359.992188 340.160156 360.253906 342.472656 360.339844 C 344.785156 360.425781 347.089844 360.335938 349.390625 360.066406 C 351.6875 359.796875 353.953125 359.355469 356.183594 358.742188 C 358.414062 358.125 360.585938 357.34375 362.695312 356.394531 C 364.808594 355.445312 366.832031 354.339844 368.773438 353.082031 C 369.527344 352.589844 370.351562 352.339844 371.25 352.335938 Z M 371.25 352.335938 " fill-opacity="1" fill-rule="nonzero"/></g></g></g></g></svg>