<svg xmlns="http://www.w3.org/2000/svg" xmlns:xlink="http://www.w3.org/1999/xlink" width="96" zoomAndPan="magnify" viewBox="0 0 72 72" height="96" preserveAspectRatio="xMidYMid meet" version="1.0"><defs><g/><clipPath id="12011d32a5"><path d="M 0 2.160156 L 72 2.160156 L 72 69.660156 L 0 69.660156 Z M 0 2.160156 " clip-rule="nonzero"/></clipPath></defs><g fill="#000000" fill-opacity="1"><g transform="translate(48.510936, 37.125)"><g><path d="M 0.53125 -2.578125 C 0.46875 -2.578125 0.414062 -2.597656 0.375 -2.640625 C 0.332031 -2.679688 0.3125 -2.734375 0.3125 -2.796875 C 0.3125 -2.859375 0.332031 -2.910156 0.375 -2.953125 C 0.414062 -2.992188 0.46875 -3.015625 0.53125 -3.015625 C 0.601562 -3.015625 0.660156 -2.992188 0.703125 -2.953125 C 0.742188 -2.910156 0.765625 -2.859375 0.765625 -2.796875 C 0.765625 -2.734375 0.742188 -2.679688 0.703125 -2.640625 C 0.660156 -2.597656 0.601562 -2.578125 0.53125 -2.578125 Z M 0.375 0 L 0.375 -2.15625 L 0.6875 -2.15625 L 0.6875 0 Z M 0.375 0 "/></g></g></g><g clip-path="url(#12011d32a5)"><path fill="#e64833" d="M 72 36 C 72 44.5625 69.011719 52.425781 64.015625 58.605469 C 63.726562 58.964844 63.429688 59.316406 63.125 59.664062 C 61.136719 61.945312 58.859375 63.972656 56.355469 65.691406 C 55.902344 66.003906 55.441406 66.308594 54.972656 66.597656 C 53.304688 67.636719 51.542969 68.539062 49.707031 69.296875 C 49.25 69.484375 48.785156 69.664062 48.320312 69.832031 L 48.320312 68.355469 C 48.789062 68.179688 49.25 67.992188 49.707031 67.792969 C 51.550781 67 53.3125 66.046875 54.972656 64.953125 C 55.441406 64.648438 55.902344 64.328125 56.355469 63.996094 C 58.449219 62.472656 60.367188 60.71875 62.066406 58.773438 C 62.371094 58.425781 62.667969 58.074219 62.957031 57.714844 C 67.746094 51.773438 70.613281 44.222656 70.613281 36 C 70.613281 24.488281 65 14.292969 56.355469 8 C 55.902344 7.667969 55.441406 7.347656 54.972656 7.042969 C 53.3125 5.949219 51.550781 4.996094 49.707031 4.203125 L 49.707031 48.402344 L 48.320312 47.242188 L 23.675781 26.5625 L 23.675781 69.832031 C 23.210938 69.664062 22.75 69.484375 22.292969 69.296875 C 20.457031 68.539062 18.695312 67.636719 17.027344 66.597656 C 16.558594 66.308594 16.097656 66.003906 15.640625 65.691406 C 6.195312 59.203125 0 48.324219 0 36 C 0 27.433594 2.988281 19.570312 7.980469 13.390625 C 8.269531 13.03125 8.566406 12.679688 8.871094 12.332031 C 10.863281 10.050781 13.140625 8.023438 15.640625 6.304688 C 16.097656 5.992188 16.558594 5.6875 17.027344 5.398438 C 18.695312 4.359375 20.457031 3.457031 22.292969 2.699219 C 22.75 2.511719 23.210938 2.332031 23.675781 2.164062 L 23.675781 3.640625 C 23.210938 3.816406 22.75 4.003906 22.292969 4.203125 C 20.449219 4.996094 18.6875 5.949219 17.027344 7.042969 C 16.554688 7.347656 16.09375 7.667969 15.640625 8 C 13.546875 9.523438 11.632812 11.277344 9.933594 13.222656 C 9.628906 13.570312 9.332031 13.921875 9.042969 14.28125 C 4.253906 20.222656 1.382812 27.773438 1.382812 36 C 1.382812 47.507812 7 57.703125 15.640625 63.996094 C 16.09375 64.328125 16.554688 64.648438 17.027344 64.953125 C 18.6875 66.046875 20.449219 67 22.292969 67.792969 L 22.292969 23.59375 L 23.675781 24.753906 L 48.320312 45.433594 L 48.320312 2.164062 C 48.785156 2.332031 49.25 2.511719 49.707031 2.699219 C 51.542969 3.457031 53.304688 4.359375 54.972656 5.398438 C 55.441406 5.6875 55.902344 5.992188 56.355469 6.304688 C 65.804688 12.792969 72 23.671875 72 36 " fill-opacity="1" fill-rule="nonzero"/></g></svg>