<svg xmlns="http://www.w3.org/2000/svg" xmlns:xlink="http://www.w3.org/1999/xlink" width="1920" zoomAndPan="magnify" viewBox="0 0 1440 525.000007" height="700" preserveAspectRatio="xMidYMid meet" version="1.0"><defs><g/><clipPath id="dc2379a3cd"><path d="M 1.367188 21.503906 L 513.394531 21.503906 L 513.394531 502.835938 L 1.367188 502.835938 Z M 1.367188 21.503906 " clip-rule="nonzero"/></clipPath></defs><g clip-path="url(#dc2379a3cd)"><path fill="#e64833" d="M 513.0625 262 C 513.0625 322.855469 491.816406 378.746094 456.335938 422.660156 C 454.273438 425.214844 452.167969 427.722656 450.003906 430.191406 C 435.847656 446.40625 419.679688 460.820312 401.890625 473.035156 C 398.667969 475.257812 395.390625 477.402344 392.054688 479.460938 C 380.1875 486.84375 367.679688 493.269531 354.621094 498.652344 C 351.378906 499.992188 348.09375 501.261719 344.78125 502.464844 L 344.78125 491.96875 C 348.097656 490.703125 351.378906 489.371094 354.621094 487.96875 C 367.730469 482.316406 380.246094 475.546875 392.054688 467.792969 C 395.394531 465.605469 398.671875 463.335938 401.890625 460.988281 C 416.769531 450.152344 430.382812 437.695312 442.472656 423.867188 C 444.636719 421.398438 446.742188 418.886719 448.796875 416.335938 C 482.835938 374.128906 503.222656 320.449219 503.222656 262 C 503.222656 180.207031 463.308594 107.738281 401.890625 63.011719 C 398.671875 60.664062 395.394531 58.394531 392.054688 56.207031 C 380.246094 48.453125 367.730469 41.683594 354.621094 36.035156 L 354.621094 350.152344 L 344.78125 341.902344 L 169.644531 194.941406 L 169.644531 502.464844 C 166.335938 501.261719 163.050781 499.992188 159.808594 498.652344 C 146.75 493.269531 134.242188 486.84375 122.375 479.460938 C 119.039062 477.402344 115.761719 475.257812 112.535156 473.035156 C 45.398438 426.925781 1.367188 349.605469 1.367188 262 C 1.367188 201.144531 22.613281 145.253906 58.09375 101.339844 C 60.152344 98.789062 62.261719 96.277344 64.421875 93.808594 C 78.578125 77.59375 94.746094 63.179688 112.535156 50.964844 C 115.761719 48.742188 119.039062 46.597656 122.375 44.539062 C 134.242188 37.15625 146.75 30.730469 159.808594 25.347656 C 163.050781 24.011719 166.335938 22.738281 169.644531 21.535156 L 169.644531 32.035156 C 166.328125 33.296875 163.050781 34.628906 159.808594 36.035156 C 146.695312 41.683594 134.179688 48.453125 122.375 56.207031 C 119.035156 58.394531 115.753906 60.664062 112.535156 63.011719 C 97.660156 73.847656 84.042969 86.308594 71.953125 100.132812 C 69.792969 102.601562 67.683594 105.113281 65.632812 107.664062 C 31.589844 149.875 11.207031 203.554688 11.207031 262 C 11.207031 343.792969 51.121094 416.261719 112.535156 460.988281 C 115.753906 463.335938 119.035156 465.605469 122.375 467.792969 C 134.179688 475.546875 146.695312 482.316406 159.808594 487.96875 L 159.808594 173.847656 L 169.644531 182.101562 L 344.78125 329.0625 L 344.78125 21.535156 C 348.09375 22.738281 351.378906 24.011719 354.621094 25.347656 C 367.679688 30.730469 380.1875 37.15625 392.054688 44.539062 C 395.390625 46.597656 398.667969 48.742188 401.890625 50.964844 C 469.03125 97.078125 513.0625 174.394531 513.0625 262 " fill-opacity="1" fill-rule="nonzero"/></g><g fill="#e64833" fill-opacity="1"><g transform="translate(569.069724, 339.107358)"><g><path d="M 2.375 0 L 45.859375 -166.546875 L 59.390625 -166.546875 L 102.875 0 L 92.890625 0 L 81.734375 -43.234375 L 23.515625 -43.234375 L 12.359375 0 Z M 25.65625 -52.5 L 79.34375 -52.5 L 52.984375 -157.28125 L 52.5 -157.28125 Z M 25.65625 -52.5 "/></g></g></g><g fill="#e64833" fill-opacity="1"><g transform="translate(694.00727, 339.107358)"><g><path d="M 39.203125 0 L 39.203125 -157.28125 L 2.375 -157.28125 L 2.375 -166.546875 L 86 -166.546875 L 86 -157.28125 L 49.171875 -157.28125 L 49.171875 0 Z M 39.203125 0 "/></g></g></g><g fill="#e64833" fill-opacity="1"><g transform="translate(802.081403, 339.107358)"><g><path d="M 14.25 0 L 14.25 -166.546875 L 24 -166.546875 L 24 -91.46875 L 84.34375 -91.46875 L 84.34375 -166.546875 L 94.078125 -166.546875 L 94.078125 0 L 84.34375 0 L 84.34375 -82.203125 L 24 -82.203125 L 24 0 Z M 14.25 0 "/></g></g></g><g fill="#e64833" fill-opacity="1"><g transform="translate(930.106605, 339.107358)"><g><path d="M 2.375 0 L 45.859375 -166.546875 L 59.390625 -166.546875 L 102.875 0 L 92.890625 0 L 81.734375 -43.234375 L 23.515625 -43.234375 L 12.359375 0 Z M 25.65625 -52.5 L 79.34375 -52.5 L 52.984375 -157.28125 L 52.5 -157.28125 Z M 25.65625 -52.5 "/></g></g></g><g fill="#e64833" fill-opacity="1"><g transform="translate(1055.044131, 339.107358)"><g><path d="M 14.25 0 L 14.25 -166.546875 L 29.9375 -166.546875 L 83.859375 -11.171875 L 84.34375 -11.171875 L 84.34375 -166.546875 L 94.3125 -166.546875 L 94.3125 0 L 78.40625 0 L 24.46875 -155.609375 L 24 -155.609375 L 24 0 Z M 14.25 0 "/></g></g></g><g fill="#e64833" fill-opacity="1"><g transform="translate(1183.306831, 339.107358)"><g><path d="M 14.25 0 L 14.25 -166.546875 L 24 -166.546875 L 24 0 Z M 14.25 0 "/></g></g></g><g fill="#e64833" fill-opacity="1"><g transform="translate(1241.265862, 339.107358)"><g><path d="M 14.25 0 L 14.25 -166.546875 L 82.921875 -166.546875 L 82.921875 -157.28125 L 24 -157.28125 L 24 -91.234375 L 73.40625 -91.234375 L 73.40625 -82.203125 L 24 -82.203125 L 24 -9.265625 L 85.296875 -9.265625 L 85.296875 0 Z M 14.25 0 "/></g></g></g><g fill="#e64833" fill-opacity="1"><g transform="translate(1352.190147, 339.107358)"><g><path d="M 14.25 0 L 14.25 -166.546875 L 24 -166.546875 L 24 -9.265625 L 73.65625 -9.265625 L 73.65625 0 Z M 14.25 0 "/></g></g></g></svg>